<svg id="flat" height="512" viewBox="0 0 512 512" width="512" xmlns="http://www.w3.org/2000/svg"><path d="m104 392h304v96h-304z" fill="#00b55b"/><path d="m104 248h304v144h-304z" fill="#02c26a"/><path d="m488 137.89a9.88622 9.88622 0 0 1 -5.46973 8.84l-42.53027 21.27-36.75977 24.5a44.61719 44.61719 0 0 1 -56.31-5.57l-26.93023-26.93v88h-128v-88l-26.92993 26.93a44.6172 44.6172 0 0 1 -56.31007 5.57l-36.76-24.5-42.53-21.27a9.88545 9.88545 0 0 1 4.42014-18.73h30.10986l6.64014-19.91a5.97288 5.97288 0 0 1 11.00976-.79l14.3501 28.7 40 16 38.41992-44.83a32.01581 32.01581 0 0 1 24.30008-11.17h114.5603a32.01568 32.01568 0 0 1 24.29981 11.17l38.41989 44.83 40-16 14.3501-28.7a5.97288 5.97288 0 0 1 11.00976.79l6.64014 19.91h30.10986a9.901 9.901 0 0 1 9.89014 9.89z" fill="#ffceb6"/><path d="m440 168-36.75977 24.5a44.61719 44.61719 0 0 1 -56.31-5.57l-26.93023-26.93v88h-128v-88l-26.92993 26.93a44.6172 44.6172 0 0 1 -56.31007 5.57l-36.76-24.5 24-32 40 16 38.41992-44.83a32.01581 32.01581 0 0 1 24.30008-11.17h114.5603a32.01568 32.01568 0 0 1 24.29981 11.17l38.41989 44.83 40-16z" fill="#ffb401"/><path d="m264 128 16 64-24 24-24-24 16-64z" fill="#f5714f"/><path d="m248 128-8-16 16-16 16 16-8 16z" fill="#ef5e3b"/><path d="m352 280v8a16 16 0 0 0 16 16h8v32h-8a16 16 0 0 0 -16 16v8h-192v-8a16 16 0 0 0 -16-16h-8v-32h8a16 16 0 0 0 16-16v-8z" fill="#67eba0"/><path d="m224 392h64v96h-64z" fill="#c5dafa"/><path d="m224 248h64v144h-64z" fill="#e0edff"/><path d="m192 312h32v16h-32z" fill="#3cde8d"/><path d="m288 312h32v16h-32z" fill="#3cde8d"/><g fill="#00a349"><path d="m168 416h56v16h-56z"/><path d="m136 416h16v16h-16z"/><path d="m288 416h120v16h-120z"/><path d="m176 448h48v16h-48z"/><path d="m104 448h56v16h-56z"/><path d="m288 448h120v16h-120z"/></g><path d="m304 96v32a7.99981 7.99981 0 0 1 -12.7998 6.4l-35.2002-26.4-35.19995 26.4a7.99585 7.99585 0 0 1 -12.80005-6.4v-32h16v16l21.33008-16h21.33984l21.33008 16v-16z" fill="#ffa100"/><path d="m256 104a24 24 0 0 1 -24-24v-8l16-16h32v24a24 24 0 0 1 -24 24z" fill="#ffceb6"/><path d="m280 56 6.63344-13.26688a12.94424 12.94424 0 0 0 1.36656-5.78885 12.94426 12.94426 0 0 0 -12.94426-12.94427h-19.05574a24 24 0 0 0 -24 24v24l16-16z" fill="#c47220"/></svg>